<svg width="583" height="167" viewBox="0 0 583 167" fill="none" xmlns="http://www.w3.org/2000/svg">
<path d="M31.1348 17.0947C31.1348 17.0947 -4.30285 34.6292 0.436217 44.1073C5.17528 53.5854 8.07138 52.427 8.07138 52.427C8.07138 52.427 55.6726 62.4317 143.767 84.8632C231.86 107.295 275.776 121.933 297.839 138.257C325.325 158.635 332.329 169.324 350.337 165.901C368.345 162.479 381.615 138.309 416.684 112.455C451.753 86.6009 465.18 83.0203 512.834 72.1204C557.855 61.7998 580.603 59.5882 582.498 47.53C584.394 35.4717 577.759 7.30059 569.229 2.98278C560.699 -1.33503 140.028 0.402594 140.028 0.402594C51.8814 -3.07272 31.1348 17.0947 31.1348 17.0947Z" fill="url(#paint0_linear)"/>
<defs>
<linearGradient id="paint0_linear" x1="291.402" y1="0.92863" x2="291.402" y2="163.207" gradientUnits="userSpaceOnUse">
<stop offset="0.00492611" stop-color="#FBC02D"/>
<stop offset="0.0811" stop-color="#FCCA30"/>
<stop offset="0.2088" stop-color="#FDD534"/>
<stop offset="0.3596" stop-color="#FDD835"/>
<stop offset="0.6897" stop-color="#FFF59D"/>
<stop offset="1" stop-color="#FDD835"/>
</linearGradient>
</defs>
</svg>
