<svg width="572" height="265" viewBox="0 0 572 265" fill="none" xmlns="http://www.w3.org/2000/svg">
<path d="M116.686 29.9926C69.8217 44.789 14.3747 90.6526 3.00093 144.941C-8.37282 199.23 11.8472 219.502 76.2984 237.142C140.75 254.782 186.192 254.835 270.863 261.154C355.482 267.472 457.846 267.472 508.396 243.461C558.946 219.45 595.542 223.241 552.627 120.93C509.712 18.6189 359.378 5.61277 285.976 0.926367C187.403 -5.39238 140.697 22.4101 116.686 29.9926Z" fill="url(#paint0_linear)"/>
<path d="M130.587 62.3762C132.746 67.9051 129.85 71.1698 127.164 72.1703C124.584 73.1707 120.214 72.8548 118.002 67.2206C115.475 60.6386 115.949 52.1082 118.95 50.9498C121.951 49.7914 128.06 55.8468 130.587 62.3762Z" fill="#FADC8B"/>
<path d="M217.523 92.3903C212.204 95.0231 208.729 92.3903 207.465 89.8101C206.254 87.3353 206.201 82.9122 211.625 80.2267C217.944 77.12 226.474 76.8567 227.896 79.7528C229.318 82.7015 223.841 89.2836 217.523 92.3903Z" fill="#FADC8B"/>
<path d="M169.079 107.292C168.447 113.189 164.445 114.769 161.549 114.453C158.811 114.19 155.02 111.873 155.651 105.87C156.389 98.867 160.706 91.4951 163.918 91.811C167.078 92.127 169.763 100.289 169.079 107.292Z" fill="#FADC8B"/>
<path d="M240.797 50.3179C238.058 55.5836 233.741 55.5309 231.161 54.2145C228.738 52.9507 226.053 49.4228 228.844 44.0518C232.108 37.7857 238.848 32.5201 241.692 33.9945C244.535 35.5215 244.061 44.0518 240.797 50.3179Z" fill="#FADC8B"/>
<path d="M407.19 55.3202C401.556 53.5299 400.819 49.2648 401.714 46.474C402.557 43.8412 405.558 40.6291 411.298 42.4195C417.985 44.5257 424.356 50.2652 423.408 53.3193C422.408 56.4787 413.93 57.4265 407.19 55.3202Z" fill="#FADC8B"/>
<path d="M326.732 40.3659C330.681 44.789 329.101 48.8435 326.942 50.7392C324.889 52.5821 320.623 53.7932 316.622 49.2648C311.935 43.9992 309.408 35.8375 311.83 33.6785C314.199 31.5723 322.045 35.1003 326.732 40.3659Z" fill="#FADC8B"/>
<path d="M448.789 85.5976C446.209 80.2793 448.789 76.804 451.369 75.5403C453.844 74.3292 458.267 74.2765 460.9 79.7001C464.006 86.0188 464.217 94.6018 461.321 95.9709C458.478 97.3926 451.896 91.9163 448.789 85.5976Z" fill="#FADC8B"/>
<path d="M417.669 141.887C411.877 143.046 409.139 139.623 408.612 136.832C408.085 134.147 409.139 129.829 415.089 128.67C421.987 127.301 430.306 129.25 430.938 132.409C431.57 135.516 424.567 140.518 417.669 141.887Z" fill="#FADC8B"/>
<path d="M355.113 96.3395C361.011 96.1289 363.17 99.9201 363.275 102.764C363.38 105.502 361.643 109.556 355.587 109.819C348.531 110.083 340.633 106.871 340.528 103.659C340.422 100.447 348.11 96.6554 355.113 96.3395Z" fill="#FADC8B"/>
<path d="M290.03 120.93C288.135 126.512 283.817 127.196 281.079 126.248C278.446 125.353 275.286 122.299 277.235 116.559C279.499 109.872 285.344 103.659 288.398 104.712C291.505 105.712 292.294 114.243 290.03 120.93Z" fill="#FADC8B"/>
<defs>
<linearGradient id="paint0_linear" x1="113.141" y1="25.9881" x2="479.485" y2="298.71" gradientUnits="userSpaceOnUse">
<stop stop-color="#FFC044"/>
<stop offset="0.8473" stop-color="#CA4300"/>
</linearGradient>
</defs>
</svg>
