<svg width="600" height="211" viewBox="0 0 600 211" fill="none" xmlns="http://www.w3.org/2000/svg">
<path d="M24.903 51C24.903 51 0.259916 73.7728 2.15554 86.7262C4.05117 99.6797 -3.53133 92.7291 2.15554 110.685C7.84242 128.641 3.10335 138.645 24.903 146.596C46.7027 154.548 36.2768 160.55 59.9721 167.554C83.6674 174.557 97.8846 177.506 114.945 186.51C132.006 195.514 138.641 200.464 158.545 199.463C178.449 198.463 202.144 200.464 202.144 200.464L239.109 206.467C239.109 206.467 244.796 208.468 271.334 210.468C297.873 212.469 307.351 203.465 320.621 202.465C333.89 201.464 353.794 207.467 365.168 204.466C376.542 201.464 402.132 191.512 402.132 191.512C402.132 191.512 425.828 174.557 439.097 175.557C452.367 176.558 474.166 171.556 484.592 165.605C495.018 159.603 518.713 157.602 518.713 157.602C518.713 157.602 534.826 150.598 549.991 142.647C565.156 134.643 572.739 134.643 579.373 129.694C586.008 124.691 588.904 124.165 595.486 111.738C601.015 101.207 600.225 86.779 595.486 71.8246C590.747 56.8702 570.029 43.6028 515.87 17.9572C461.711 -7.68836 139 -3.8293 96 17.9572C53 39.7437 24.903 51 24.903 51Z" fill="url(#paint0_radial)"/>
<defs>
<radialGradient id="paint0_radial" cx="0" cy="0" r="1" gradientUnits="userSpaceOnUse" gradientTransform="translate(299.602 103.859) scale(300.393 114.21)">
<stop stop-color="#583223"/>
<stop offset="0.1013" stop-color="#7B3915"/>
<stop offset="0.225" stop-color="#A04106"/>
<stop offset="0.2906" stop-color="#AE4400"/>
<stop offset="0.3208" stop-color="#A84302"/>
<stop offset="0.7241" stop-color="#623A15"/>
<stop offset="0.9458" stop-color="#603813"/>
</radialGradient>
</defs>
</svg>
