<svg width="636" height="162" viewBox="0 0 636 162" fill="none" xmlns="http://www.w3.org/2000/svg">
<path d="M38.5499 41.8714C33.0737 47.2423 24.3328 43.4511 17.1189 41.1342C9.90495 38.8173 1.00604 42.4506 2.00651 50.1911C2.69104 55.3514 6.27167 56.7204 10.8528 58.8793C15.4339 60.9856 19.9623 62.7232 16.8029 66.8304C13.5382 71.0956 9.4837 67.3044 3.95479 71.9381C-6.57646 80.7844 6.48229 96.8445 13.4856 96.6339C24.1748 96.3179 26.4917 90.3678 32.3365 86.4186L32.4945 87.2611C33.4949 92.4214 39.4978 94.8436 43.8156 91.8422L44.1842 91.5789C47.7648 89.104 52.9778 89.6833 55.242 93.4219C58.0854 98.1609 54.3468 104.006 53.7676 109.535C52.9778 117.433 60.5076 125.068 68.0901 124.068C75.6726 123.067 81.1488 113.8 78.516 106.323C78.516 114.906 85.414 122.857 93.6284 123.752C101.843 124.647 110.162 118.328 111.847 109.903C112.374 113.642 113.901 117.17 116.113 120.171C119.535 124.805 126.854 124.858 130.277 120.224C132.12 117.696 135.069 116.064 138.018 116.854C132.594 120.75 135.911 130.597 142.125 132.967C148.338 135.336 155.131 132.809 161.292 130.281C172.665 125.595 184.092 120.908 195.466 116.222C203.311 113.01 211.21 109.745 219.372 107.586C239.223 102.321 251.702 107.902 267.447 117.012C274.608 121.172 283.454 121.066 290.51 116.749C293.143 115.116 295.249 113.747 295.618 113.221C305.201 110.956 305.886 122.383 302.41 128.175C300.094 132.019 299.146 136.705 301.041 140.812C305.201 149.817 317.575 146.289 323.42 139.075C329.107 132.124 333.425 128.386 341.955 126.227C351.065 123.91 359.648 126.49 367.915 123.647C374.549 121.382 379.183 115.801 386.186 115.695C398.192 115.485 398.824 131.966 411.409 131.808C422.888 131.65 424.573 121.962 433.103 119.065C440.633 116.538 444.108 120.54 444.53 128.702C444.951 136.863 446.741 142.603 453.797 146.289C467.488 153.45 483.074 125.174 495.343 134.704C503.031 140.655 499.134 156.083 507.664 160.664C512.772 163.402 519.038 160.032 523.145 155.872C527.253 151.712 534.203 138.232 539.627 136.179C551.422 131.65 563.322 148.974 574.169 142.445C579.33 139.338 580.33 136.653 582.594 130.913C584.806 125.174 588.123 119.013 593.863 117.486C596.601 116.749 599.55 118.012 601.498 120.066C605.974 124.7 613.293 125.753 618.611 122.067C632.46 112.483 638.831 92.9479 634.408 70.727C628.826 42.7139 595.442 34.9734 598.286 18.2814C579.909 27.9701 574.275 36.5531 554.844 29.4972C545.524 26.1272 536.52 20.7562 526.621 20.7035C509.823 20.6509 496.765 35.5526 480.915 41.2921C466.013 46.7157 449.427 43.609 434.683 37.6589C419.992 31.7087 406.459 23.0204 391.926 16.649C361.754 3.43231 327.369 0.799482 295.67 9.22448C271.922 15.5432 248.438 27.9701 224.216 24.0736C206.471 21.2301 191.148 9.90903 174.35 3.37966C137.912 -10.6796 103.054 23.547 67.1949 25.4953C55.242 26.1271 43.7103 7.96074 31.7046 18.0181C26.1231 22.7045 26.9129 29.8657 28.9139 35.1314C29.5457 36.5004 36.391 43.9776 38.5499 41.8714Z" fill="url(#paint0_linear)"/>
<defs>
<linearGradient id="paint0_linear" x1="317.962" y1="75.633" x2="317.962" y2="168.129" gradientUnits="userSpaceOnUse">
<stop stop-color="#518F00"/>
<stop offset="0.1974" stop-color="#619E15"/>
<stop offset="0.404" stop-color="#6FAA27"/>
<stop offset="0.4245" stop-color="#72AD2B"/>
<stop offset="0.5468" stop-color="#80B93C"/>
<stop offset="0.6779" stop-color="#88C147"/>
<stop offset="0.8325" stop-color="#8BC34A"/>
<stop offset="1" stop-color="#8CC63F"/>
</linearGradient>
</defs>
</svg>
