<?xml version="1.0" standalone="no"?>
<!DOCTYPE svg PUBLIC "-//W3C//DTD SVG 20010904//EN"
 "http://www.w3.org/TR/2001/REC-SVG-20010904/DTD/svg10.dtd">
<svg version="1.0" xmlns="http://www.w3.org/2000/svg"
 width="700.000000pt" height="700.000000pt" viewBox="0 0 700.000000 700.000000"
 preserveAspectRatio="xMidYMid meet">
<metadata>
Created by potrace 1.11, written by Peter Selinger 2001-2013
</metadata>
<g transform="translate(0.000000,700.000000) scale(0.100000,-0.100000)"
fill="#000000" stroke="none">
<path d="M2140 6825 c-972 -119 -1774 -804 -2045 -1746 -82 -285 -116 -629
-79 -807 24 -119 93 -255 169 -335 l27 -28 -61 -60 c-143 -142 -187 -345 -116
-524 l27 -68 -27 -78 c-57 -165 -43 -321 46 -496 l51 -101 -25 -34 c-61 -79
-106 -225 -107 -339 0 -104 44 -237 110 -334 l28 -40 5 -260 c3 -181 10 -287
21 -350 90 -481 445 -875 915 -1015 177 -52 74 -50 2415 -50 1386 0 2196 4
2241 10 555 79 998 505 1101 1059 11 58 18 170 21 346 l5 260 28 40 c66 97
110 230 110 334 -1 114 -46 260 -107 339 l-25 34 51 101 c89 175 103 331 46
496 l-27 78 27 68 c72 180 27 382 -117 524 l-60 60 44 50 c54 60 108 161 138
256 53 172 28 537 -60 849 -187 665 -648 1221 -1264 1525 -172 85 -297 131
-470 176 -285 73 -196 69 -1636 71 -1006 2 -1318 -1 -1400 -11z m2715 -290
c601 -79 1154 -424 1495 -933 79 -119 179 -311 225 -437 118 -317 169 -747
107 -905 -47 -118 -149 -213 -270 -250 -59 -18 -94 -20 -456 -20 -387 0 -392
0 -436 -22 -98 -51 -107 -168 -20 -242 l32 -26 486 0 c268 -1 506 -5 529 -9
62 -12 110 -49 138 -105 30 -59 31 -106 6 -161 -21 -46 -79 -101 -119 -112
-35 -10 -6109 -10 -6144 0 -40 11 -98 66 -119 112 -25 55 -24 102 6 161 28 56
76 93 138 105 23 4 974 8 2113 9 l2071 0 34 23 c90 60 88 172 -5 241 l-27 21
-2012 5 -2012 5 -55 22 c-122 50 -214 151 -252 277 -19 62 -20 84 -15 215 30
690 382 1309 964 1694 253 168 579 291 879 331 156 22 2557 22 2719 1z m-1355
-3520 c2923 0 3118 1 3158 17 53 21 57 15 49 -74 -7 -79 -62 -192 -119 -244
-59 -54 -137 -78 -233 -72 -76 5 -97 13 -236 91 -169 95 -414 103 -579 18 -30
-15 -86 -45 -124 -66 -55 -30 -82 -39 -137 -43 -90 -6 -147 9 -249 68 -121 69
-195 92 -316 98 -130 6 -229 -15 -333 -71 -183 -97 -168 -92 -271 -92 -103 0
-96 -2 -264 90 -105 58 -185 75 -346 75 -161 0 -241 -17 -346 -75 -142 -78
-167 -88 -236 -93 -89 -6 -146 9 -250 70 -116 66 -190 89 -314 95 -128 7 -223
-13 -325 -67 -157 -84 -180 -93 -256 -98 -88 -6 -148 12 -240 70 -191 121
-444 131 -642 25 -168 -89 -170 -90 -245 -95 -99 -6 -174 16 -232 70 -59 55
-114 165 -121 246 -8 89 -4 95 49 74 40 -16 235 -17 3158 -17z m195 -526 c28
-15 85 -45 127 -67 201 -106 422 -94 643 33 100 57 140 68 235 63 63 -2 87 -9
140 -37 166 -86 203 -103 272 -117 93 -20 238 -13 328 15 36 11 100 41 143 66
43 26 97 53 119 61 53 18 166 18 223 -1 54 -19 167 -85 163 -96 -3 -8 -1504
-1088 -1522 -1095 -6 -2 -180 120 -386 271 -206 152 -533 391 -727 533 -194
141 -352 259 -353 262 0 4 15 11 33 18 18 6 60 28 92 48 111 68 135 74 285 71
124 -2 139 -4 185 -28z m-1337 -712 c-2 -89 57 -147 149 -147 44 0 58 5 86 30
42 37 61 78 55 125 l-4 35 97 0 97 0 -4 -37 c-6 -48 20 -100 65 -130 34 -23
37 -23 384 -23 l349 0 412 -302 c226 -166 431 -313 456 -326 83 -43 45 -64
650 372 l355 256 500 0 c294 0 514 4 534 10 l34 9 -6 -172 c-8 -247 -50 -394
-160 -565 -135 -208 -358 -371 -597 -434 l-85 -23 -2225 0 -2225 0 -85 23
c-288 76 -542 290 -667 560 -61 132 -84 244 -90 439 l-6 172 34 -9 c21 -6 343
-10 822 -10 675 0 792 2 817 15 41 21 70 74 70 129 l0 46 94 0 94 0 0 -43z"/>
<path d="M2115 5819 c-106 -93 -45 -259 95 -259 76 0 130 51 138 130 9 95 -50
160 -146 160 -43 0 -57 -5 -87 -31z"/>
<path d="M3815 5819 c-106 -93 -45 -259 95 -259 76 0 130 51 138 130 9 95 -50
160 -146 160 -43 0 -57 -5 -87 -31z"/>
<path d="M2993 5580 c-108 -55 -106 -221 3 -266 100 -42 204 27 204 134 0 113
-108 182 -207 132z"/>
<path d="M4693 5580 c-108 -55 -106 -221 3 -266 100 -42 204 27 204 134 0 113
-108 182 -207 132z"/>
<path d="M873 5030 c-87 -52 -87 -198 0 -250 68 -42 168 -16 203 52 53 101
-15 218 -126 218 -27 0 -58 -8 -77 -20z"/>
<path d="M2573 5030 c-41 -25 -65 -71 -65 -125 0 -86 58 -145 142 -145 84 0
142 59 142 145 0 86 -58 145 -142 145 -27 0 -58 -8 -77 -20z"/>
<path d="M4273 5030 c-41 -25 -65 -71 -65 -125 0 -86 58 -145 142 -145 84 0
142 59 142 145 0 86 -58 145 -142 145 -27 0 -58 -8 -77 -20z"/>
<path d="M5973 5030 c-40 -24 -66 -73 -66 -125 0 -84 60 -145 143 -145 84 0
142 59 142 145 0 86 -58 145 -142 145 -27 0 -58 -8 -77 -20z"/>
<path d="M1750 4789 c-108 -45 -126 -193 -32 -264 19 -14 43 -20 82 -20 89 0
142 55 142 147 0 53 -17 86 -63 121 -31 22 -95 31 -129 16z"/>
<path d="M3445 4786 c-105 -47 -120 -191 -27 -261 20 -14 43 -20 82 -20 39 0
62 6 82 20 94 71 78 216 -29 261 -40 17 -69 17 -108 0z"/>
<path d="M5145 4786 c-41 -18 -85 -71 -87 -104 -6 -116 43 -177 142 -177 87 0
142 54 142 141 0 106 -106 182 -197 140z"/>
<path d="M5013 3969 c-44 -21 -83 -82 -83 -127 0 -34 24 -84 54 -111 39 -37
128 -41 176 -9 48 32 74 87 65 138 -8 49 -47 98 -92 116 -45 19 -71 18 -120
-7z"/>
</g>
</svg>
